<svg width="48" height="48" viewBox="0 0 48 48" fill="none" xmlns="http://www.w3.org/2000/svg">
<path d="M47.0901 28.9355C46.5077 31.9778 45.3325 34.8627 43.6316 37.4254C41.9306 39.9882 39.7373 42.1786 37.1768 43.8716C34.6163 45.5646 31.7387 46.7271 28.7084 47.2927C25.6782 47.8582 22.5545 47.8158 19.5158 47.1678C13.379 45.8589 7.96079 42.1631 4.45315 36.8931C0.945501 31.6232 -0.3643 25.2109 0.811877 19.0669C1.98808 12.9227 5.55397 7.55008 10.7251 4.13088C15.8963 0.711666 22.2491 -0.474037 28.386 0.834605C34.5228 2.14336 39.9411 5.83922 43.4488 11.1091C46.9564 16.3791 48.2663 22.7914 47.0901 28.9355V28.9355Z" fill="url(#paint0_linear_4_3)"/>
<path d="M14.1857 11.4138C14.1208 11.4264 14.0563 11.4416 13.9926 11.4593C13.7839 11.4551 13.3985 11.5694 12.755 11.8216C12.082 12.0851 11.3767 12.3588 11.1875 12.4303C10.7898 12.58 10.7903 12.6385 11.2146 15.3828C11.3579 16.3098 11.502 17.2917 11.5349 17.565C11.5679 17.8383 11.6365 18.0634 11.6874 18.0655C11.7115 18.0664 11.8048 17.9218 11.9353 17.6908C11.9709 17.8721 12.0194 18.002 12.0579 18.0031C12.1088 18.0051 12.4616 17.3744 12.842 16.6015C13.1211 16.0345 13.3826 15.547 13.5211 15.3269C14.0069 15.4832 14.8401 15.8798 14.9104 16.0147C14.969 16.1273 15.4443 16.4968 15.9663 16.836C16.5023 17.1837 17.0834 17.7085 17.3002 18.0408C17.5111 18.3646 18.361 19.5676 19.1883 20.7142L20.6927 22.7993L21.5755 22.8473C22.0612 22.8739 22.7987 22.9569 23.2147 23.0317C23.9474 23.1636 23.9793 23.1899 24.2441 23.8827C24.3941 24.2758 24.6564 25.2885 24.8267 26.1333C25.3166 28.5669 25.8783 31.0596 26.2125 32.2846C26.3048 32.6238 26.502 33.4207 26.6504 34.0553C26.7988 34.69 26.9982 35.4868 27.0931 35.8261C27.1881 36.1654 27.3947 36.9626 27.5525 37.5976C27.7103 38.2329 27.9411 39.134 28.0652 39.6001C28.1896 40.0664 28.3294 40.6769 28.3766 40.957C28.4237 41.2371 28.4926 41.4371 28.5295 41.4015C28.5533 41.3786 28.5585 40.8167 28.5514 39.9961C28.6367 40.3486 28.7147 40.7013 28.7475 40.8948C28.7944 41.1746 28.8634 41.3749 28.9003 41.339C28.9693 41.2725 28.8903 36.8433 28.7667 33.8577C28.742 33.2585 28.743 32.7109 28.7646 32.38C28.8813 32.5203 29.0167 32.7056 29.1544 32.92C30.1722 34.5055 30.5748 35.1424 30.9792 35.8067C31.195 36.1609 31.393 36.4302 31.4193 36.4047C31.4345 36.3901 31.4225 36.1515 31.3951 35.8153C31.5918 36.1319 31.7653 36.3659 31.7898 36.3426C31.8161 36.3171 31.7689 35.6782 31.6849 34.9227C31.5461 33.6718 31.4404 32.813 30.8671 28.2714C30.7277 27.1661 30.6722 26.7046 30.6824 26.4973C31.149 26.7522 32.156 27.3695 33.2877 28.099C34.8046 29.0768 36.0699 29.8535 36.0992 29.8249C36.1204 29.8045 36.056 29.695 35.8408 29.4099C36.2175 29.6381 36.4575 29.7746 36.47 29.7625C36.5196 29.7147 36.154 29.2424 34.2744 26.9249C33.676 26.1871 32.5098 24.7358 30.7255 22.5095C30.5418 22.2801 29.7864 21.3423 29.0475 20.4256C28.3035 19.503 27.5631 18.5774 26.8265 17.649C26.344 17.0383 25.8802 16.4664 25.7952 16.3782C25.7107 16.29 25.15 15.5916 24.5492 14.8262C23.9486 14.0608 23.3422 13.3628 23.2021 13.2748C22.9502 13.1168 20.7602 12.7715 18.2497 12.4942C16.9547 12.3508 14.8526 11.7599 14.5234 11.4465C14.4689 11.3945 14.3619 11.3822 14.1857 11.4138V11.4138Z" fill="#34E410" stroke="#34E410" stroke-width="0.262743" stroke-miterlimit="10" stroke-dasharray="262.74 262.74"/>
<defs>
<linearGradient id="paint0_linear_4_3" x1="0.390623" y1="0.314869" x2="47.5114" y2="0.314869" gradientUnits="userSpaceOnUse">
<stop offset="0.24" stop-color="#0075FF"/>
<stop offset="0.8175" stop-color="#0075FF" stop-opacity="0.65"/>
</linearGradient>
</defs>
</svg>
